<svg width="1180" height="250" viewBox="0 0 1180 250" xmlns="http://www.w3.org/2000/svg">
<path d="M-0,189.052l32.559,-183.801l18.38,0l-29.933,168.834l86.911,0l-2.626,14.967l-105.291,-0Z" fill="#615fff"/>
<path d="M108.705,189.052l23.369,-132.336l18.38,-0l-23.369,132.336l-18.38,-0Zm37.548,-149.929c-3.326,0 -6.171,-1.181 -8.534,-3.545c-2.363,-2.363 -3.545,-5.207 -3.545,-8.533c0,-3.326 1.182,-6.171 3.545,-8.534c2.363,-2.363 5.208,-3.544 8.534,-3.544c3.325,-0 6.17,1.181 8.533,3.544c2.363,2.363 3.545,5.208 3.545,8.534c-0,3.326 -1.182,6.17 -3.545,8.533c-2.363,2.364 -5.208,3.545 -8.533,3.545Z" fill="#615fff"/>
<path d="M192.203,249.968c-8.753,0 -16.586,-1.137 -23.501,-3.413c-6.914,-2.276 -12.909,-5.514 -17.986,-9.715c-5.076,-4.201 -8.971,-9.278 -11.684,-15.229c-2.713,-5.952 -4.158,-12.604 -4.333,-19.956l18.38,0c0.526,6.477 2.539,12.122 6.04,16.936c3.501,4.814 8.271,8.577 14.31,11.291c6.039,2.713 13.085,4.07 21.137,4.07c9.102,-0 17.548,-1.97 25.338,-5.908c7.79,-3.939 14.398,-9.803 19.824,-17.593c5.427,-7.789 9.19,-17.461 11.291,-29.014l3.413,-20.743c-3.676,5.426 -8.315,10.503 -13.916,15.229c-5.602,4.726 -12.035,8.534 -19.299,11.422c-7.265,2.888 -15.273,4.332 -24.026,4.332c-11.553,0 -21.443,-2.669 -29.67,-8.008c-8.227,-5.339 -14.398,-12.56 -18.511,-21.662c-4.114,-9.103 -5.908,-19.343 -5.383,-30.721c0.525,-10.678 2.801,-20.699 6.827,-30.065c4.026,-9.365 9.496,-17.636 16.41,-24.813c6.915,-7.177 14.967,-12.778 24.157,-16.804c9.19,-4.026 19.036,-6.039 29.539,-6.039c12.079,-0 22.319,2.8 30.721,8.402c8.403,5.601 14.092,12.428 17.067,20.481l7.878,-25.732l15.229,-0l-22.319,126.559c-1.75,10.153 -4.901,19.299 -9.452,27.439c-4.552,8.14 -10.153,15.142 -16.805,21.006c-6.652,5.864 -14.266,10.371 -22.844,13.522c-8.577,3.151 -17.855,4.726 -27.832,4.726Zm10.24,-74.307c10.503,-0 20.087,-2.757 28.752,-8.271c8.664,-5.514 15.71,-12.954 21.137,-22.319c5.426,-9.365 8.314,-19.737 8.664,-31.115c0.526,-9.102 -0.919,-16.936 -4.332,-23.5c-3.413,-6.564 -8.271,-11.684 -14.573,-15.36c-6.301,-3.676 -13.741,-5.514 -22.318,-5.514c-10.853,-0 -20.481,2.713 -28.883,8.139c-8.403,5.427 -15.054,12.691 -19.956,21.794c-4.901,9.102 -7.614,19.343 -8.139,30.721c-0.526,9.102 0.7,17.067 3.676,23.894c2.975,6.827 7.57,12.122 13.785,15.885c6.214,3.764 13.61,5.646 22.187,5.646Z" fill="#615fff"/>
<path d="M279.376,189.052l33.085,-189.052l18.38,0l-14.179,80.347c5.776,-8.402 13.084,-14.967 21.924,-19.693c8.84,-4.726 18.074,-7.089 27.702,-7.089c10.153,-0 18.642,2.013 25.469,6.039c6.827,4.026 11.597,10.153 14.31,18.38c2.714,8.227 2.932,18.73 0.657,31.508l-14.179,79.56l-18.118,-0l13.392,-77.459c2.45,-14.179 1.313,-24.725 -3.414,-31.64c-4.726,-6.914 -12.778,-10.371 -24.156,-10.371c-7.878,-0 -15.317,1.925 -22.319,5.776c-7.002,3.851 -12.954,9.409 -17.855,16.673c-4.901,7.265 -8.315,16.236 -10.24,26.914l-12.079,70.107l-18.38,-0Z" fill="#615fff"/>
<path d="M450.836,189.052c-8.577,-0 -15.448,-1.357 -20.612,-4.07c-5.164,-2.713 -8.577,-6.915 -10.24,-12.604c-1.663,-5.689 -1.707,-12.997 -0.132,-21.924l13.654,-77.984l-21.006,-0l2.889,-15.754l21.005,-0l7.878,-30.721l16.016,-0l-5.514,30.721l39.649,-0l-2.626,15.754l-39.648,-0l-13.917,77.984c-1.575,8.752 -0.919,14.747 1.97,17.986c2.888,3.238 8.533,4.857 16.936,4.857l16.542,0l-2.889,15.755l-19.955,-0Z" fill="#615fff"/>
<path d="M522.255,192.203c-10.677,-0 -19.78,-1.838 -27.307,-5.514c-7.527,-3.676 -13.085,-8.928 -16.673,-15.755c-3.589,-6.827 -5.033,-15.054 -4.333,-24.681l18.905,-0c-0.175,5.426 0.701,10.371 2.626,14.835c1.926,4.464 5.339,8.052 10.24,10.765c4.902,2.714 11.379,4.07 19.431,4.07c6.652,0 12.428,-1.006 17.329,-3.019c4.902,-2.013 8.797,-4.946 11.685,-8.797c2.888,-3.851 4.42,-8.314 4.595,-13.391c0.35,-4.726 -0.657,-8.49 -3.02,-11.29c-2.363,-2.801 -5.82,-5.033 -10.371,-6.696c-4.551,-1.663 -10.065,-3.107 -16.542,-4.332c-5.252,-0.876 -10.328,-2.188 -15.229,-3.939c-4.902,-1.75 -9.19,-3.982 -12.866,-6.696c-3.676,-2.713 -6.521,-6.082 -8.534,-10.109c-2.013,-4.026 -2.932,-8.752 -2.757,-14.178c0.35,-7.527 2.801,-14.267 7.352,-20.218c4.551,-5.952 10.678,-10.722 18.38,-14.311c7.702,-3.588 16.455,-5.382 26.257,-5.382c13.479,-0 24.201,3.369 32.165,10.109c7.965,6.739 11.51,16.585 10.634,29.539l-18.642,0c0.525,-7.177 -1.488,-12.866 -6.039,-17.067c-4.552,-4.201 -11.291,-6.302 -20.218,-6.302c-8.928,0 -16.192,2.013 -21.794,6.039c-5.601,4.026 -8.49,9.015 -8.665,14.967c-0.175,3.851 0.788,7.133 2.889,9.846c2.1,2.714 5.295,4.945 9.583,6.696c4.289,1.75 9.672,3.326 16.149,4.726c5.601,1.05 10.94,2.451 16.016,4.201c5.077,1.751 9.497,3.983 13.26,6.696c3.764,2.713 6.696,6.127 8.797,10.24c2.1,4.114 2.975,9.146 2.625,15.098c-0.35,8.928 -3.019,16.673 -8.008,23.238c-4.989,6.564 -11.597,11.64 -19.824,15.229c-8.228,3.588 -17.593,5.383 -28.096,5.383Z" fill="#615fff"/>
<path d="M623.608,189.052c-8.577,-0 -15.448,-1.357 -20.612,-4.07c-5.164,-2.713 -8.577,-6.915 -10.24,-12.604c-1.663,-5.689 -1.707,-12.997 -0.131,-21.924l13.653,-77.984l-21.005,-0l2.888,-15.754l21.006,-0l7.877,-30.721l16.017,-0l-5.514,30.721l39.648,-0l-2.626,15.754l-39.648,-0l-13.916,77.984c-1.576,8.752 -0.919,14.747 1.969,17.986c2.888,3.238 8.534,4.857 16.936,4.857l16.542,0l-2.888,15.755l-19.956,-0Z" fill="#615fff"/>
<path d="M700.279,192.203c-11.553,-0 -21.356,-2.757 -29.408,-8.271c-8.052,-5.514 -14.047,-12.91 -17.986,-22.188c-3.939,-9.277 -5.645,-19.518 -5.12,-30.721c0.525,-11.378 2.757,-21.749 6.695,-31.114c3.939,-9.365 9.234,-17.549 15.886,-24.551c6.652,-7.002 14.398,-12.385 23.238,-16.148c8.839,-3.764 18.336,-5.645 28.489,-5.645c11.728,-0 21.355,2.45 28.883,7.352c7.527,4.901 12.953,11.64 16.279,20.218l5.514,-24.419l17.067,-0l-23.369,132.336l-17.067,-0l2.888,-23.894c-3.501,4.726 -7.658,9.146 -12.472,13.26c-4.814,4.113 -10.503,7.439 -17.067,9.977c-6.564,2.539 -14.048,3.808 -22.45,3.808Zm4.201,-16.017c10.328,-0 19.518,-2.757 27.57,-8.271c8.053,-5.514 14.529,-12.998 19.431,-22.45c4.901,-9.453 7.527,-19.956 7.877,-31.509c0.525,-9.102 -0.613,-16.936 -3.414,-23.5c-2.8,-6.564 -7.089,-11.684 -12.866,-15.36c-5.776,-3.676 -12.866,-5.514 -21.268,-5.514c-9.978,-0 -19.036,2.582 -27.176,7.745c-8.14,5.164 -14.704,12.254 -19.693,21.269c-4.989,9.015 -7.746,19.474 -8.271,31.377c-0.525,8.928 0.7,16.892 3.676,23.894c2.976,7.002 7.396,12.472 13.26,16.411c5.864,3.938 12.822,5.908 20.874,5.908Z" fill="#615fff"/>
<path d="M835.766,192.203c-11.028,-0 -20.612,-2.495 -28.751,-7.484c-8.14,-4.989 -14.354,-11.947 -18.643,-20.874c-4.289,-8.928 -6.083,-19.255 -5.383,-30.984c0.35,-11.728 2.626,-22.406 6.827,-32.033c4.201,-9.628 9.803,-17.943 16.805,-24.945c7.002,-7.002 15.054,-12.472 24.156,-16.41c9.103,-3.939 18.731,-5.908 28.883,-5.908c15.755,-0 28.139,4.026 37.154,12.078c9.015,8.052 13.61,18.818 13.785,32.296l-18.38,0c-0.175,-9.277 -3.588,-16.323 -10.24,-21.137c-6.652,-4.814 -14.879,-7.22 -24.682,-7.22c-9.627,-0 -18.555,2.538 -26.782,7.614c-8.227,5.077 -14.879,12.253 -19.956,21.531c-5.076,9.278 -7.964,20.131 -8.665,32.559c-0.35,7.352 0.351,13.829 2.101,19.43c1.751,5.602 4.289,10.328 7.615,14.179c3.326,3.851 7.308,6.783 11.947,8.796c4.638,2.013 9.584,3.02 14.835,3.02c6.477,-0 12.691,-1.094 18.643,-3.282c5.951,-2.188 11.246,-5.427 15.885,-9.715c4.639,-4.289 8.184,-9.584 10.634,-15.886l18.38,-0c-3.151,8.577 -7.964,16.236 -14.441,22.975c-6.477,6.739 -14.135,11.991 -22.975,15.754c-8.84,3.764 -18.424,5.646 -28.752,5.646Z" fill="#615fff"/>
<path d="M930.463,119.61l-12.249,69.442l-18.38,-0l23.342,-132.336l18.38,-0l-10.055,57.008l66.01,-57.008l24.419,-0l-71.51,60.255l55.23,72.081l-23.106,-0l-52.081,-69.442Z" fill="#615fff"/>
<path d="M1027.92,189.052l-54.352,-72.47l104.89,-90.587l25.306,-0l-107.968,90.976l55.23,72.081l-23.106,-0Z" fill="#7c86ff"/>
<path d="M1073.31,189.052l-54.352,-72.47l134.989,-116.582l26.057,0l-138.818,116.971l55.23,72.081l-23.106,-0Z" fill="#a3b3ff"/>
</svg>