<?xml version="1.0" encoding="UTF-8" standalone="no"?><!DOCTYPE svg PUBLIC "-//W3C//DTD SVG 1.1//EN" "http://www.w3.org/Graphics/SVG/1.1/DTD/svg11.dtd"><svg width="100%" height="100%" viewBox="0 0 1155 250" version="1.1" xmlns="http://www.w3.org/2000/svg" xmlns:xlink="http://www.w3.org/1999/xlink" xml:space="preserve" xmlns:serif="http://www.serif.com/" style="fill-rule:evenodd;clip-rule:evenodd;stroke-linejoin:round;stroke-miterlimit:2;"><rect id="lightstack-logo-2025-08" x="0" y="0" width="1155" height="250" style="fill:none;"/><clipPath id="_clip1"><rect x="0" y="0" width="1155" height="250"/></clipPath><g clip-path="url(#_clip1)"><g><path d="M-0,189.098l32.563,-183.845l18.383,-0l-29.937,168.875l86.922,0l-2.626,14.97l-105.305,0Z" style="fill:#615fff;fill-rule:nonzero;"/><path d="M108.719,189.098l23.372,-132.368l18.383,-0l-23.372,132.368l-18.383,0Zm37.553,-149.965c-3.326,-0 -6.171,-1.182 -8.535,-3.546c-2.363,-2.363 -3.545,-5.209 -3.545,-8.535c0,-3.327 1.182,-6.172 3.545,-8.536c2.364,-2.364 5.209,-3.546 8.535,-3.546c3.326,0 6.171,1.182 8.535,3.546c2.363,2.364 3.545,5.209 3.545,8.536c0,3.326 -1.182,6.172 -3.545,8.535c-2.364,2.364 -5.209,3.546 -8.535,3.546Z" style="fill:#615fff;fill-rule:nonzero;"/><path d="M192.228,250.03c-8.753,0 -16.588,-1.138 -23.503,-3.414c-6.915,-2.276 -12.912,-5.516 -17.989,-9.718c-5.077,-4.202 -8.972,-9.28 -11.686,-15.233c-2.713,-5.953 -4.158,-12.606 -4.333,-19.96l18.383,-0c0.525,6.478 2.538,12.125 6.04,16.94c3.501,4.815 8.272,8.579 14.312,11.293c6.04,2.714 13.087,4.071 21.14,4.071c9.104,0 17.551,-1.97 25.341,-5.909c7.791,-3.94 14.4,-9.805 19.827,-17.597c5.427,-7.791 9.191,-17.465 11.292,-29.021l3.414,-20.748c-3.676,5.427 -8.316,10.505 -13.918,15.233c-5.602,4.727 -12.036,8.535 -19.302,11.424c-7.265,2.889 -15.275,4.334 -24.028,4.334c-11.555,-0 -21.446,-2.67 -29.675,-8.011c-8.228,-5.34 -14.399,-12.562 -18.514,-21.667c-4.114,-9.105 -5.908,-19.348 -5.383,-30.729c0.525,-10.68 2.801,-20.704 6.828,-30.072c4.026,-9.367 9.497,-17.64 16.413,-24.819c6.915,-7.178 14.968,-12.781 24.16,-16.808c9.191,-4.028 19.039,-6.041 29.543,-6.041c12.08,-0 22.321,2.801 30.725,8.404c8.403,5.603 14.093,12.432 17.069,20.486l7.879,-25.738l15.231,-0l-22.322,126.59c-1.751,10.156 -4.902,19.304 -9.454,27.446c-4.552,8.142 -10.154,15.145 -16.807,21.011c-6.652,5.865 -14.268,10.374 -22.846,13.526c-8.579,3.151 -17.858,4.727 -27.837,4.727Zm10.242,-74.326c10.504,-0 20.089,-2.758 28.755,-8.273c8.667,-5.516 15.713,-12.957 21.14,-22.324c5.428,-9.368 8.316,-19.742 8.666,-31.123c0.526,-9.104 -0.919,-16.94 -4.333,-23.506c-3.414,-6.566 -8.272,-11.687 -14.574,-15.364c-6.303,-3.677 -13.743,-5.515 -22.322,-5.515c-10.854,-0 -20.483,2.714 -28.887,8.141c-8.403,5.428 -15.056,12.695 -19.958,21.799c-4.902,9.105 -7.615,19.348 -8.141,30.729c-0.525,9.105 0.701,17.071 3.677,23.9c2.976,6.828 7.572,12.125 13.787,15.889c6.215,3.765 13.612,5.647 22.19,5.647Z" style="fill:#615fff;fill-rule:nonzero;"/><path d="M279.414,189.098l33.088,-189.098l18.383,-0l-14.181,80.367c5.777,-8.405 13.087,-14.97 21.928,-19.698c8.841,-4.727 18.076,-7.091 27.705,-7.091c10.154,-0 18.645,2.013 25.473,6.041c6.827,4.027 11.598,10.155 14.312,18.384c2.713,8.229 2.932,18.735 0.656,31.516l-14.181,79.579l-18.119,0l13.393,-77.477c2.451,-14.183 1.313,-24.732 -3.414,-31.648c-4.727,-6.916 -12.781,-10.374 -24.16,-10.374c-7.878,-0 -15.319,1.926 -22.322,5.778c-7.003,3.852 -12.955,9.411 -17.857,16.677c-4.902,7.266 -8.316,16.24 -10.242,26.92l-12.08,70.124l-18.382,0Z" style="fill:#615fff;fill-rule:nonzero;"/><path d="M450.896,189.098c-8.578,0 -15.45,-1.357 -20.614,-4.07c-5.165,-2.714 -8.579,-6.917 -10.242,-12.607c-1.663,-5.691 -1.707,-13.001 -0.131,-21.93l13.655,-78.003l-21.008,-0l2.888,-15.758l21.009,-0l7.878,-30.729l16.019,0l-5.515,30.729l39.654,-0l-2.626,15.758l-39.654,-0l-13.918,78.003c-1.576,8.754 -0.919,14.751 1.97,17.99c2.888,3.24 8.534,4.859 16.938,4.859l16.544,0l-2.889,15.758l-19.958,0Z" style="fill:#615fff;fill-rule:nonzero;"/><path d="M522.325,192.25c-10.679,0 -19.783,-1.838 -27.311,-5.515c-7.528,-3.677 -13.086,-8.93 -16.675,-15.759c-3.589,-6.828 -5.034,-15.057 -4.333,-24.687l18.907,-0c-0.175,5.427 0.701,10.374 2.626,14.839c1.926,4.464 5.34,8.054 10.242,10.768c4.902,2.714 11.38,4.071 19.433,4.071c6.653,-0 12.43,-1.007 17.332,-3.021c4.902,-2.013 8.797,-4.946 11.686,-8.798c2.889,-3.852 4.421,-8.317 4.596,-13.395c0.35,-4.727 -0.657,-8.491 -3.02,-11.293c-2.364,-2.801 -5.821,-5.034 -10.373,-6.697c-4.552,-1.664 -10.067,-3.108 -16.544,-4.334c-5.253,-0.875 -10.33,-2.188 -15.232,-3.939c-4.902,-1.751 -9.191,-3.984 -12.867,-6.697c-3.677,-2.714 -6.522,-6.085 -8.535,-10.112c-2.013,-4.027 -2.933,-8.755 -2.758,-14.182c0.351,-7.529 2.802,-14.27 7.353,-20.223c4.552,-5.953 10.68,-10.725 18.383,-14.314c7.703,-3.589 16.457,-5.384 26.261,-5.384c13.48,-0 24.203,3.37 32.169,10.111c7.966,6.741 11.511,16.59 10.636,29.547l-18.645,0c0.525,-7.179 -1.489,-12.869 -6.04,-17.071c-4.552,-4.203 -11.293,-6.304 -20.221,-6.304c-8.929,0 -16.194,2.014 -21.797,6.041c-5.602,4.027 -8.491,9.017 -8.666,14.97c-0.175,3.852 0.788,7.135 2.889,9.849c2.101,2.714 5.296,4.946 9.585,6.697c4.289,1.751 9.673,3.327 16.151,4.728c5.602,1.05 10.942,2.451 16.019,4.202c5.077,1.751 9.497,3.983 13.261,6.697c3.764,2.714 6.697,6.128 8.798,10.243c2.1,4.115 2.976,9.149 2.626,15.102c-0.35,8.929 -3.02,16.677 -8.01,23.243c-4.989,6.566 -11.598,11.644 -19.827,15.233c-8.228,3.589 -17.594,5.384 -28.099,5.384Z" style="fill:#615fff;fill-rule:nonzero;"/><path d="M623.692,189.098c-8.579,0 -15.45,-1.357 -20.615,-4.07c-5.165,-2.714 -8.578,-6.917 -10.242,-12.607c-1.663,-5.691 -1.707,-13.001 -0.131,-21.93l13.656,-78.003l-21.009,-0l2.889,-15.758l21.008,-0l7.878,-30.729l16.02,0l-5.515,30.729l39.653,-0l-2.626,15.758l-39.653,-0l-13.918,78.003c-1.576,8.754 -0.92,14.751 1.969,17.99c2.889,3.24 8.535,4.859 16.938,4.859l16.544,0l-2.888,15.758l-19.958,0Z" style="fill:#615fff;fill-rule:nonzero;"/><path d="M700.373,192.25c-11.555,0 -21.359,-2.758 -29.412,-8.273c-8.053,-5.515 -14.05,-12.913 -17.989,-22.193c-3.939,-9.28 -5.646,-19.522 -5.12,-30.728c0.525,-11.381 2.757,-21.755 6.696,-31.123c3.939,-9.367 9.235,-17.553 15.888,-24.556c6.652,-7.004 14.399,-12.388 23.24,-16.152c8.842,-3.765 18.339,-5.647 28.493,-5.647c11.73,-0 21.359,2.451 28.887,7.354c7.528,4.902 12.955,11.643 16.282,20.223l5.514,-24.425l17.07,-0l-23.372,132.368l-17.07,0l2.889,-23.9c-3.501,4.728 -7.659,9.149 -12.474,13.264c-4.814,4.114 -10.504,7.441 -17.069,9.98c-6.565,2.539 -14.05,3.808 -22.453,3.808Zm4.202,-16.021c10.329,0 19.52,-2.757 27.573,-8.273c8.054,-5.515 14.531,-13 19.433,-22.455c4.902,-9.455 7.528,-19.961 7.878,-31.517c0.526,-9.104 -0.612,-16.94 -3.413,-23.506c-2.802,-6.566 -7.091,-11.687 -12.868,-15.364c-5.777,-3.677 -12.868,-5.515 -21.271,-5.515c-9.979,-0 -19.039,2.582 -27.18,7.747c-8.141,5.166 -14.706,12.257 -19.696,21.274c-4.989,9.017 -7.747,19.479 -8.272,31.385c-0.525,8.93 0.701,16.896 3.677,23.9c2.976,7.004 7.396,12.475 13.261,16.415c5.865,3.939 12.824,5.909 20.878,5.909Z" style="fill:#615fff;fill-rule:nonzero;"/><path d="M835.878,192.25c-11.029,0 -20.615,-2.495 -28.755,-7.485c-8.141,-4.99 -14.356,-11.95 -18.645,-20.88c-4.29,-8.929 -6.084,-19.26 -5.384,-30.991c0.35,-11.731 2.626,-22.412 6.828,-32.042c4.202,-9.63 9.804,-17.946 16.807,-24.95c7.003,-7.004 15.056,-12.475 24.16,-16.415c9.103,-3.939 18.732,-5.909 28.886,-5.909c15.757,-0 28.143,4.027 37.159,12.081c9.016,8.054 13.612,18.822 13.787,32.304l-18.382,0c-0.175,-9.279 -3.589,-16.327 -10.242,-21.142c-6.653,-4.815 -14.881,-7.222 -24.685,-7.222c-9.629,-0 -18.558,2.539 -26.786,7.616c-8.228,5.078 -14.881,12.257 -19.958,21.536c-5.077,9.28 -7.966,20.136 -8.666,32.567c-0.35,7.354 0.35,13.833 2.101,19.435c1.75,5.603 4.289,10.331 7.615,14.183c3.327,3.852 7.31,6.785 11.949,8.798c4.639,2.014 9.585,3.02 14.837,3.02c6.478,0 12.693,-1.094 18.645,-3.282c5.953,-2.189 11.249,-5.428 15.888,-9.718c4.639,-4.29 8.185,-9.586 10.636,-15.89l18.382,0c-3.151,8.58 -7.966,16.24 -14.443,22.981c-6.478,6.741 -14.137,11.994 -22.978,15.758c-8.841,3.765 -18.427,5.647 -28.756,5.647Z" style="fill:#615fff;fill-rule:nonzero;"/><path d="M930.587,119.639l-12.25,69.459l-18.383,0l23.346,-132.368l18.383,-0l-10.057,57.022l86.899,-74.619l24.422,-0l-92.4,77.867l55.238,72.098l-23.11,0l-52.088,-69.459Z" style="fill:#615fff;fill-rule:nonzero;"/><path d="M1015.96,189.098l-54.367,-72.497l104.286,-89.549l24.422,-0l-106.47,89.948l55.238,72.098l-23.109,0Z" style="fill:#7c86ff;fill-rule:nonzero;"/><path d="M1049.15,189.098l-54.367,-72.497l135.79,-116.601l24.422,-0l-137.973,117l55.237,72.098l-23.109,0Z" style="fill:#a3b3ff;fill-rule:nonzero;"/></g></g></svg>