<?xml version="1.0" encoding="UTF-8" standalone="no"?><!DOCTYPE svg PUBLIC "-//W3C//DTD SVG 1.1//EN" "http://www.w3.org/Graphics/SVG/1.1/DTD/svg11.dtd"><svg width="100%" height="100%" viewBox="0 0 1320 360" version="1.1" xmlns="http://www.w3.org/2000/svg" xmlns:xlink="http://www.w3.org/1999/xlink" xml:space="preserve" xmlns:serif="http://www.serif.com/" style="fill-rule:evenodd;clip-rule:evenodd;stroke-linejoin:round;stroke-miterlimit:2;"><rect id="lightstack-logo-2025-08-protected" x="0" y="0" width="1320" height="360" style="fill:none;"/><g><path d="M81.352,244.068l32.559,-183.801l18.38,0l-29.933,168.834l86.911,-0l-2.626,14.967l-105.291,-0Z" style="fill:#615fff;fill-rule:nonzero;"/><path d="M190.057,244.068l23.368,-132.337l18.38,0l-23.368,132.337l-18.38,-0Zm37.547,-149.929c-3.326,0 -6.17,-1.182 -8.533,-3.545c-2.363,-2.363 -3.545,-5.207 -3.545,-8.533c-0,-3.326 1.182,-6.171 3.545,-8.534c2.363,-2.363 5.207,-3.545 8.533,-3.545c3.326,0 6.171,1.182 8.534,3.545c2.363,2.363 3.545,5.208 3.545,8.534c-0,3.326 -1.182,6.17 -3.545,8.533c-2.363,2.363 -5.208,3.545 -8.534,3.545Z" style="fill:#615fff;fill-rule:nonzero;"/><path d="M227.604,94.139c-3.326,0 -6.17,-1.182 -8.533,-3.545c-2.363,-2.363 -3.545,-5.207 -3.545,-8.533c-0,-3.326 1.182,-6.171 3.545,-8.534c2.363,-2.363 5.207,-3.545 8.533,-3.545c3.326,0 6.171,1.182 8.534,3.545c2.363,2.363 3.545,5.208 3.545,8.534c-0,3.326 -1.182,6.17 -3.545,8.533c-2.363,2.363 -5.208,3.545 -8.534,3.545Z" style="fill:#615fff;fill-rule:nonzero;"/><path d="M273.554,304.984c-8.752,0 -16.585,-1.138 -23.5,-3.413c-6.914,-2.276 -12.91,-5.514 -17.986,-9.715c-5.076,-4.202 -8.971,-9.278 -11.684,-15.23c-2.714,-5.951 -4.158,-12.603 -4.333,-19.955l18.38,-0c0.525,6.477 2.538,12.122 6.039,16.936c3.501,4.814 8.271,8.577 14.31,11.29c6.04,2.714 13.085,4.07 21.138,4.07c9.102,0 17.548,-1.969 25.338,-5.908c7.789,-3.938 14.397,-9.802 19.824,-17.592c5.426,-7.789 9.19,-17.461 11.29,-29.014l3.414,-20.743c-3.676,5.426 -8.315,10.503 -13.916,15.229c-5.602,4.726 -12.035,8.534 -19.299,11.422c-7.265,2.888 -15.273,4.332 -24.026,4.332c-11.553,0 -21.443,-2.669 -29.67,-8.008c-8.228,-5.339 -14.398,-12.56 -18.512,-21.662c-4.113,-9.103 -5.908,-19.343 -5.382,-30.721c0.525,-10.678 2.8,-20.7 6.826,-30.065c4.027,-9.365 9.497,-17.636 16.411,-24.813c6.915,-7.177 14.967,-12.778 24.157,-16.804c9.19,-4.026 19.036,-6.04 29.539,-6.04c12.078,0 22.319,2.801 30.721,8.403c8.402,5.601 14.091,12.428 17.067,20.48l7.877,-25.732l15.23,0l-22.319,126.56c-1.751,10.153 -4.901,19.299 -9.453,27.439c-4.551,8.139 -10.152,15.141 -16.804,21.005c-6.652,5.865 -14.267,10.372 -22.844,13.523c-8.577,3.151 -17.855,4.726 -27.833,4.726Zm10.241,-74.308c10.503,0 20.086,-2.757 28.751,-8.271c8.665,-5.514 15.711,-12.953 21.137,-22.318c5.427,-9.365 8.315,-19.737 8.665,-31.115c0.525,-9.103 -0.919,-16.936 -4.332,-23.5c-3.414,-6.564 -8.271,-11.685 -14.573,-15.361c-6.302,-3.676 -13.741,-5.514 -22.319,-5.514c-10.853,0 -20.48,2.714 -28.882,8.14c-8.403,5.427 -15.055,12.691 -19.956,21.794c-4.901,9.102 -7.615,19.342 -8.14,30.72c-0.525,9.103 0.701,17.068 3.676,23.894c2.976,6.827 7.571,12.123 13.785,15.886c6.215,3.764 13.61,5.645 22.188,5.645Z" style="fill:#615fff;fill-rule:nonzero;"/><path d="M360.728,244.068l33.084,-189.052l18.38,-0l-14.179,80.347c5.777,-8.403 13.085,-14.967 21.925,-19.693c8.84,-4.726 18.074,-7.09 27.702,-7.09c10.152,0 18.642,2.014 25.469,6.04c6.827,4.026 11.597,10.152 14.31,18.38c2.713,8.227 2.932,18.73 0.657,31.508l-14.179,79.56l-18.118,-0l13.391,-77.459c2.451,-14.179 1.313,-24.726 -3.413,-31.64c-4.726,-6.914 -12.779,-10.372 -24.157,-10.372c-7.877,0 -15.316,1.926 -22.318,5.777c-7.002,3.851 -12.954,9.409 -17.855,16.673c-4.901,7.265 -8.315,16.236 -10.24,26.914l-12.079,70.107l-18.38,-0Z" style="fill:#615fff;fill-rule:nonzero;"/><path d="M532.188,244.068c-8.578,-0 -15.448,-1.357 -20.612,-4.07c-5.164,-2.714 -8.578,-6.915 -10.241,-12.604c-1.662,-5.689 -1.706,-12.997 -0.131,-21.925l13.654,-77.983l-21.006,-0l2.888,-15.755l21.006,0l7.877,-30.721l16.017,0l-5.514,30.721l39.649,0l-2.626,15.755l-39.648,-0l-13.917,77.983c-1.575,8.753 -0.919,14.748 1.969,17.987c2.889,3.238 8.534,4.857 16.936,4.857l16.542,0l-2.888,15.755l-19.955,-0Z" style="fill:#615fff;fill-rule:nonzero;"/><path d="M603.607,247.218c-10.678,0 -19.78,-1.838 -27.307,-5.514c-7.527,-3.676 -13.085,-8.927 -16.674,-15.754c-3.588,-6.827 -5.032,-15.054 -4.332,-24.682l18.905,0c-0.175,5.427 0.7,10.372 2.626,14.836c1.925,4.463 5.339,8.052 10.24,10.765c4.902,2.713 11.378,4.07 19.43,4.07c6.652,-0 12.429,-1.007 17.33,-3.02c4.902,-2.013 8.796,-4.945 11.685,-8.796c2.888,-3.851 4.42,-8.315 4.595,-13.391c0.35,-4.726 -0.657,-8.49 -3.02,-11.291c-2.363,-2.8 -5.82,-5.032 -10.371,-6.695c-4.552,-1.663 -10.066,-3.107 -16.542,-4.333c-5.252,-0.875 -10.328,-2.188 -15.23,-3.938c-4.901,-1.751 -9.19,-3.982 -12.866,-6.696c-3.676,-2.713 -6.52,-6.083 -8.533,-10.109c-2.013,-4.026 -2.932,-8.752 -2.757,-14.179c0.35,-7.527 2.8,-14.266 7.352,-20.218c4.551,-5.951 10.678,-10.721 18.38,-14.31c7.702,-3.588 16.454,-5.383 26.257,-5.383c13.479,0 24.2,3.37 32.165,10.109c7.965,6.74 11.509,16.586 10.634,29.54l-18.642,-0c0.525,-7.177 -1.488,-12.866 -6.04,-17.067c-4.551,-4.202 -11.29,-6.302 -20.218,-6.302c-8.927,-0 -16.192,2.013 -21.793,6.039c-5.602,4.026 -8.49,9.015 -8.665,14.967c-0.175,3.851 0.788,7.133 2.888,9.846c2.101,2.713 5.296,4.945 9.584,6.696c4.289,1.75 9.672,3.326 16.148,4.726c5.602,1.05 10.941,2.451 16.017,4.201c5.077,1.751 9.497,3.982 13.26,6.696c3.764,2.713 6.696,6.126 8.796,10.24c2.101,4.114 2.976,9.146 2.626,15.098c-0.35,8.927 -3.02,16.673 -8.008,23.238c-4.989,6.564 -11.597,11.64 -19.825,15.229c-8.227,3.588 -17.592,5.382 -28.095,5.382Z" style="fill:#615fff;fill-rule:nonzero;"/><path d="M704.96,244.068c-8.577,-0 -15.448,-1.357 -20.612,-4.07c-5.164,-2.714 -8.577,-6.915 -10.24,-12.604c-1.663,-5.689 -1.707,-12.997 -0.132,-21.925l13.654,-77.983l-21.006,-0l2.889,-15.755l21.005,0l7.878,-30.721l16.017,0l-5.514,30.721l39.648,0l-2.626,15.755l-39.648,-0l-13.917,77.983c-1.575,8.753 -0.919,14.748 1.97,17.987c2.888,3.238 8.533,4.857 16.936,4.857l16.542,0l-2.889,15.755l-19.955,-0Z" style="fill:#615fff;fill-rule:nonzero;"/><path d="M781.631,247.218c-11.553,0 -21.356,-2.757 -29.408,-8.271c-8.052,-5.514 -14.048,-12.909 -17.986,-22.187c-3.939,-9.277 -5.646,-19.518 -5.12,-30.721c0.525,-11.378 2.757,-21.75 6.695,-31.115c3.939,-9.365 9.234,-17.548 15.886,-24.55c6.652,-7.002 14.397,-12.385 23.237,-16.148c8.84,-3.764 18.337,-5.646 28.489,-5.646c11.729,0 21.356,2.451 28.883,7.352c7.527,4.902 12.954,11.641 16.28,20.218l5.514,-24.419l17.067,0l-23.369,132.337l-17.067,-0l2.888,-23.895c-3.501,4.727 -7.658,9.147 -12.472,13.26c-4.814,4.114 -10.503,7.44 -17.067,9.978c-6.564,2.538 -14.048,3.807 -22.45,3.807Zm4.201,-16.016c10.328,-0 19.518,-2.757 27.57,-8.272c8.052,-5.514 14.529,-12.997 19.43,-22.449c4.902,-9.453 7.528,-19.956 7.878,-31.509c0.525,-9.103 -0.613,-16.936 -3.414,-23.5c-2.801,-6.564 -7.089,-11.685 -12.866,-15.361c-5.776,-3.676 -12.866,-5.514 -21.268,-5.514c-9.978,0 -19.037,2.582 -27.176,7.746c-8.14,5.164 -14.704,12.254 -19.693,21.269c-4.989,9.014 -7.746,19.474 -8.271,31.377c-0.525,8.927 0.7,16.892 3.676,23.894c2.976,7.002 7.396,12.472 13.26,16.411c5.864,3.938 12.822,5.908 20.874,5.908Z" style="fill:#615fff;fill-rule:nonzero;"/><path d="M917.118,247.218c-11.028,0 -20.612,-2.494 -28.752,-7.483c-8.139,-4.989 -14.354,-11.947 -18.642,-20.874c-4.289,-8.928 -6.083,-19.256 -5.383,-30.984c0.35,-11.728 2.626,-22.406 6.827,-32.034c4.201,-9.627 9.803,-17.942 16.805,-24.944c7.001,-7.002 15.054,-12.472 24.156,-16.411c9.103,-3.938 18.73,-5.908 28.883,-5.908c15.754,0 28.139,4.027 37.154,12.079c9.015,8.052 13.61,18.817 13.785,32.296l-18.38,0c-0.175,-9.277 -3.589,-16.323 -10.24,-21.137c-6.652,-4.814 -14.879,-7.221 -24.682,-7.221c-9.628,0 -18.555,2.539 -26.782,7.615c-8.228,5.076 -14.879,12.253 -19.956,21.531c-5.076,9.277 -7.965,20.13 -8.665,32.559c-0.35,7.352 0.35,13.829 2.101,19.43c1.75,5.602 4.288,10.328 7.614,14.179c3.326,3.851 7.309,6.783 11.947,8.796c4.639,2.013 9.584,3.02 14.836,3.02c6.477,-0 12.691,-1.094 18.642,-3.282c5.952,-2.189 11.247,-5.427 15.886,-9.716c4.639,-4.288 8.183,-9.584 10.634,-15.885l18.38,-0c-3.151,8.577 -7.965,16.235 -14.441,22.975c-6.477,6.739 -14.135,11.991 -22.975,15.754c-8.84,3.764 -18.424,5.645 -28.752,5.645Z" style="fill:#615fff;fill-rule:nonzero;"/><path d="M1011.81,174.626l-12.248,69.442l-18.38,-0l23.342,-132.337l18.38,0l-10.055,57.009l86.379,-74.601l21.642,0l-89.102,77.848l55.23,72.081l-23.106,-0l-52.082,-69.442Z" style="fill:#615fff;fill-rule:nonzero;"/><path d="M1097.95,244.068l-54.352,-72.47l117.66,-101.616l25.624,0l-121.056,102.005l55.23,72.081l-23.106,-0Z" style="fill:#7c86ff;fill-rule:nonzero;"/><path d="M1131.95,244.068l-54.352,-72.47l134.989,-116.582l26.057,-0l-138.818,116.971l55.23,72.081l-23.106,-0Z" style="fill:#a3b3ff;fill-rule:nonzero;"/></g></svg>