<svg viewBox="0 0 1108 255" xmlns="http://www.w3.org/2000/svg">
    <g>
        <path d="M-0,193.097l33.072,-186.696l18.67,0l-30.405,171.494l88.28,-0l-2.667,15.202l-106.95,0Z" fill="#615fff"/>
            <path d="M106.417,193.097l23.47,-134.421l18.67,-0l-23.471,134.421l-18.669,0Zm41.073,-166.159c-3.912,-0 -7.157,-1.289 -9.735,-3.868c-2.578,-2.578 -3.867,-5.823 -3.867,-9.735c-0,-4.089 1.289,-7.334 3.867,-9.734c2.578,-2.401 5.734,-3.601 9.468,-3.601c3.734,-0 6.935,1.2 9.602,3.601c2.667,2.4 4,5.645 4,9.734c0,3.912 -1.333,7.157 -4,9.735c-2.667,2.579 -5.779,3.868 -9.335,3.868Z" fill="#615fff"/>
            <path d="M152.83,158.184c0.809,0.506 1.607,0.987 2.395,1.441c2.311,1.334 4.934,2.534 7.867,3.601c2.934,1.067 6.624,1.956 11.069,2.667c4.445,0.711 9.957,1.333 16.536,1.867c12.98,0.889 23.026,3.156 30.138,6.801c7.112,3.645 12.002,8.179 14.669,13.602c2.667,5.423 3.823,11.246 3.467,17.47c-0.355,9.068 -3.334,17.336 -8.935,24.803c-5.6,7.468 -13.379,13.425 -23.337,17.87c-9.957,4.445 -21.603,6.668 -34.938,6.668c-11.202,-0 -20.893,-1.556 -29.072,-4.668c-8.179,-3.111 -14.535,-7.556 -19.069,-13.335c-4.534,-5.779 -6.535,-12.847 -6.001,-21.204c0.177,-5.689 1.378,-11.068 3.6,-16.135c2.223,-5.068 5.69,-9.869 10.402,-14.403c3.647,-3.509 7.961,-6.833 12.94,-9.97c-2.612,-1.146 -4.969,-2.401 -7.073,-3.765c-3.289,-2.134 -6.178,-4.445 -8.668,-6.935l1.067,-6.134l25.271,-19.735c-2.459,-2.429 -4.482,-5.186 -6.068,-8.269c-3.2,-6.224 -4.534,-13.158 -4,-20.804c0.355,-10.312 3.245,-19.514 8.668,-27.604c5.423,-8.09 12.668,-14.536 21.736,-19.336c9.069,-4.801 19.381,-7.202 30.939,-7.202c7.988,0 14.883,1.067 20.684,3.201l48.393,-0l-2.934,14.936l-26.33,0.882c0.157,0.281 0.31,0.565 0.46,0.851c3.2,6.135 4.534,13.113 4,20.937c-0.355,10.135 -3.2,19.292 -8.534,27.471c-5.335,8.179 -12.536,14.669 -21.604,19.47c-9.068,4.8 -19.381,7.201 -30.938,7.201c-8.451,-0 -15.708,-1.194 -21.771,-3.582l-15.029,11.342Zm8.096,22.136c-7.525,4.171 -13.248,8.83 -17.17,13.977c-4.267,5.601 -6.49,11.691 -6.668,18.27c-0.355,5.512 0.934,10.268 3.868,14.269c2.933,4.001 7.245,7.023 12.935,9.068c5.69,2.045 12.535,3.067 20.537,3.067c13.157,0 23.87,-2.934 32.138,-8.801c8.268,-5.868 12.58,-13.602 12.935,-23.204c0.356,-5.868 -1.6,-10.979 -5.867,-15.336c-4.268,-4.356 -12.802,-6.89 -25.604,-7.601c-8.713,-0.711 -16.225,-1.645 -22.537,-2.8c-1.578,-0.289 -3.1,-0.592 -4.567,-0.909Zm31.638,-45.899c11.379,0 20.67,-3.334 27.871,-10.001c7.201,-6.668 11.068,-15.514 11.602,-26.538c0.533,-8.712 -1.734,-15.291 -6.801,-19.736c-5.068,-4.445 -12.313,-6.668 -21.737,-6.668c-11.38,-0 -20.715,3.289 -28.005,9.868c-7.29,6.579 -11.201,15.558 -11.735,26.938c-0.355,8.534 1.956,15.024 6.935,19.47c4.978,4.445 12.268,6.667 21.87,6.667Z" fill="#615fff"/>
            <path d="M245.906,193.097l33.605,-192.03l18.67,-0l-14.403,81.613c5.868,-8.535 13.291,-15.203 22.27,-20.003c8.98,-4.801 18.359,-7.202 28.138,-7.202c10.313,0 18.937,2.045 25.871,6.135c6.934,4.089 11.78,10.312 14.536,18.669c2.756,8.357 2.978,19.026 0.666,32.005l-14.402,80.813l-18.403,0l13.602,-78.679c2.49,-14.402 1.334,-25.115 -3.467,-32.138c-4.801,-7.024 -12.98,-10.535 -24.537,-10.535c-8.001,-0 -15.558,1.956 -22.67,5.867c-7.113,3.912 -13.158,9.557 -18.137,16.936c-4.978,7.379 -8.445,16.492 -10.401,27.338l-12.269,71.211l-18.669,0Z" fill="#615fff"/>
            <path d="M413.399,193.097c-8.713,0 -15.692,-1.378 -20.937,-4.134c-5.245,-2.756 -8.712,-7.023 -10.402,-12.802c-1.689,-5.778 -1.733,-13.202 -0.133,-22.27l13.869,-79.213l-21.337,0l2.934,-16.002l21.337,-0l8.001,-31.205l16.269,0l-5.601,31.205l40.273,-0l-2.667,16.002l-40.273,0l-14.135,79.213c-1.601,8.89 -0.934,14.98 2,18.27c2.934,3.289 8.668,4.934 17.203,4.934l16.802,-0l-2.933,16.002l-20.27,0Z" fill="#615fff"/>
            <path d="M479.276,196.298c-10.846,-0 -20.092,-1.867 -27.738,-5.601c-7.646,-3.734 -13.291,-9.068 -16.936,-16.003c-3.645,-6.934 -5.112,-15.291 -4.401,-25.07l19.203,-0c-0.177,5.512 0.712,10.535 2.668,15.069c1.955,4.534 5.423,8.179 10.401,10.935c4.979,2.756 11.558,4.134 19.737,4.134c6.756,-0 12.624,-1.023 17.602,-3.067c4.979,-2.045 8.935,-5.023 11.869,-8.935c2.934,-3.912 4.49,-8.446 4.667,-13.602c0.356,-4.801 -0.666,-8.624 -3.067,-11.469c-2.4,-2.845 -5.912,-5.112 -10.535,-6.801c-4.623,-1.689 -10.224,-3.156 -16.802,-4.401c-5.335,-0.889 -10.491,-2.222 -15.47,-4c-4.978,-1.778 -9.334,-4.045 -13.068,-6.801c-3.734,-2.756 -6.624,-6.179 -8.668,-10.269c-2.045,-4.089 -2.979,-8.89 -2.801,-14.402c0.356,-7.645 2.845,-14.491 7.468,-20.536c4.623,-6.046 10.846,-10.891 18.67,-14.536c7.823,-3.645 16.713,-5.468 26.671,-5.468c13.691,0 24.581,3.423 32.671,10.269c8.091,6.845 11.691,16.847 10.802,30.004l-18.936,0c0.533,-7.29 -1.512,-13.068 -6.134,-17.336c-4.623,-4.267 -11.469,-6.401 -20.537,-6.401c-9.068,0 -16.447,2.045 -22.137,6.135c-5.69,4.089 -8.623,9.157 -8.801,15.202c-0.178,3.912 0.8,7.246 2.933,10.002c2.134,2.756 5.379,5.023 9.735,6.801c4.357,1.778 9.824,3.378 16.403,4.801c5.69,1.066 11.113,2.489 16.269,4.267c5.157,1.778 9.646,4.045 13.469,6.801c3.823,2.756 6.801,6.223 8.935,10.402c2.133,4.178 3.022,9.29 2.667,15.335c-0.356,9.068 -3.067,16.936 -8.135,23.604c-5.067,6.668 -11.779,11.824 -20.136,15.469c-8.357,3.645 -17.87,5.468 -28.538,5.468Z" fill="#615fff"/>
            <path d="M575.558,193.097c-8.713,0 -15.692,-1.378 -20.937,-4.134c-5.245,-2.756 -8.712,-7.023 -10.402,-12.802c-1.689,-5.778 -1.733,-13.202 -0.133,-22.27l13.869,-79.213l-21.337,0l2.934,-16.002l21.337,-0l8.001,-31.205l16.269,0l-5.601,31.205l40.273,-0l-2.667,16.002l-40.273,0l-14.135,79.213c-1.601,8.89 -0.934,14.98 2,18.27c2.934,3.289 8.668,4.934 17.203,4.934l16.802,-0l-2.933,16.002l-20.27,0Z" fill="#615fff"/>
            <path d="M634.234,196.298c-9.957,-0 -18.048,-1.778 -24.271,-5.334c-6.223,-3.557 -10.757,-8.18 -13.602,-13.869c-2.845,-5.69 -4.089,-11.735 -3.734,-18.137c0.356,-9.957 3.334,-18.447 8.935,-25.47c5.601,-7.024 13.202,-12.358 22.803,-16.003c9.602,-3.645 20.715,-5.467 33.339,-5.467l36.006,-0c1.6,-9.068 1.556,-16.581 -0.134,-22.537c-1.689,-5.957 -4.8,-10.446 -9.334,-13.469c-4.534,-3.023 -10.624,-4.534 -18.27,-4.534c-9.246,-0 -17.558,2.311 -24.937,6.934c-7.379,4.623 -12.669,11.38 -15.869,20.27l-19.47,0c2.845,-9.423 7.423,-17.336 13.735,-23.737c6.312,-6.401 13.736,-11.246 22.271,-14.535c8.534,-3.29 17.425,-4.935 26.67,-4.935c11.913,0 21.471,2.267 28.672,6.802c7.201,4.534 12.09,10.89 14.669,19.069c2.578,8.179 2.889,17.781 0.933,28.805l-14.402,82.946l-16.803,0l2.934,-24.537c-2.489,3.734 -5.334,7.29 -8.535,10.668c-3.2,3.379 -6.845,6.312 -10.935,8.802c-4.089,2.489 -8.668,4.489 -13.735,6.001c-5.068,1.511 -10.713,2.267 -16.936,2.267Zm4,-16.536c6.757,-0 12.98,-1.334 18.67,-4.001c5.69,-2.667 10.846,-6.223 15.469,-10.668c4.623,-4.445 8.446,-9.513 11.469,-15.203c3.022,-5.689 5.067,-11.468 6.134,-17.336l1.067,-4.8l-34.939,-0c-9.246,-0 -17.07,1.2 -23.471,3.6c-6.401,2.401 -11.335,5.779 -14.802,10.135c-3.467,4.356 -5.29,9.557 -5.467,15.603c-0.356,6.934 1.644,12.446 6.001,16.535c4.356,4.09 10.979,6.135 19.869,6.135Z" fill="#615fff"/>
            <path d="M761.987,196.298c-11.202,-0 -20.936,-2.534 -29.204,-7.601c-8.268,-5.068 -14.58,-12.136 -18.937,-21.204c-4.356,-9.068 -6.178,-19.558 -5.467,-31.471c0.355,-11.913 2.667,-22.76 6.934,-32.539c4.268,-9.779 9.957,-18.225 17.07,-25.337c7.112,-7.113 15.291,-12.669 24.537,-16.67c9.246,-4 19.025,-6.001 29.338,-6.001c16.002,0 28.582,4.09 37.739,12.269c9.157,8.179 13.824,19.114 14.002,32.805l-18.669,0c-0.178,-9.423 -3.645,-16.58 -10.402,-21.47c-6.757,-4.889 -15.113,-7.334 -25.071,-7.334c-9.779,-0 -18.847,2.578 -27.204,7.734c-8.357,5.157 -15.113,12.447 -20.27,21.87c-5.156,9.424 -8.09,20.448 -8.801,33.072c-0.356,7.468 0.355,14.047 2.133,19.737c1.779,5.69 4.357,10.49 7.735,14.402c3.378,3.912 7.423,6.89 12.135,8.935c4.712,2.045 9.735,3.067 15.069,3.067c6.579,-0 12.891,-1.111 18.937,-3.334c6.045,-2.223 11.424,-5.512 16.136,-9.868c4.711,-4.356 8.312,-9.735 10.801,-16.136l18.67,-0c-3.201,8.712 -8.09,16.491 -14.669,23.337c-6.579,6.845 -14.358,12.18 -23.337,16.002c-8.979,3.823 -18.714,5.735 -29.205,5.735Z" fill="#615fff"/>
            <path d="M851.508,122.561l-12.442,70.536l-18.669,0l23.71,-134.421l18.67,-0l-10.215,57.907l92.506,-77.096l24.804,-0l-98.092,80.394l56.1,73.216l-23.47,0l-52.902,-70.536Z" fill="#615fff"/>
            <path d="M896.809,119.486l115.97,-99.199l24.804,-0l-118.196,99.594l56.101,73.216l-23.471,0l-55.208,-73.611Z" fill="#7c86ff"/>
            <path d="M944.416,119.486l138.78,-118.419l24.804,-0l-141.005,118.814l56.1,73.216l-23.47,0l-55.209,-73.611Z" fill="#a3b3ff"/>
    </g>
</svg>
