<?xml version="1.0" encoding="UTF-8" standalone="no"?><!DOCTYPE svg PUBLIC "-//W3C//DTD SVG 1.1//EN" "http://www.w3.org/Graphics/SVG/1.1/DTD/svg11.dtd"><svg width="100%" height="100%" viewBox="0 0 1295 360" version="1.1" xmlns="http://www.w3.org/2000/svg" xmlns:xlink="http://www.w3.org/1999/xlink" xml:space="preserve" xmlns:serif="http://www.serif.com/" style="fill-rule:evenodd;clip-rule:evenodd;stroke-linejoin:round;stroke-miterlimit:2;"><rect id="lightstack-logo-2025-08-protected" x="0" y="0" width="1295" height="360" style="fill:none;"/><g><path d="M70,244.083l32.567,-183.845l18.385,-0l-29.941,168.875l86.933,0l-2.627,14.97l-105.317,0Z" style="fill:#615fff;fill-rule:nonzero;"/><path d="M178.732,244.083l23.374,-132.369l18.385,0l-23.375,132.369l-18.384,0Zm37.557,-149.965c-3.327,-0 -6.172,-1.182 -8.536,-3.546c-2.364,-2.364 -3.546,-5.209 -3.546,-8.535c0,-3.327 1.182,-6.172 3.546,-8.536c2.364,-2.364 5.209,-3.546 8.536,-3.546c3.326,0 6.172,1.182 8.535,3.546c2.364,2.364 3.546,5.209 3.546,8.536c-0,3.326 -1.182,6.171 -3.546,8.535c-2.363,2.364 -5.209,3.546 -8.535,3.546Z" style="fill:#615fff;fill-rule:nonzero;"/><path d="M262.25,305.015c-8.755,0 -16.59,-1.138 -23.506,-3.414c-6.916,-2.276 -12.913,-5.516 -17.991,-9.718c-5.077,-4.202 -8.973,-9.28 -11.687,-15.233c-2.714,-5.953 -4.158,-12.606 -4.333,-19.96l18.384,-0c0.525,6.478 2.539,12.125 6.041,16.94c3.502,4.815 8.273,8.579 14.314,11.293c6.04,2.714 13.088,4.071 21.142,4.071c9.104,0 17.553,-1.97 25.344,-5.909c7.792,-3.94 14.401,-9.805 19.829,-17.597c5.428,-7.791 9.193,-17.465 11.294,-29.021l3.414,-20.748c-3.677,5.427 -8.317,10.505 -13.92,15.233c-5.603,4.727 -12.037,8.535 -19.304,11.424c-7.266,2.889 -15.276,4.334 -24.031,4.334c-11.556,-0 -21.449,-2.67 -29.678,-8.011c-8.229,-5.34 -14.401,-12.562 -18.516,-21.667c-4.114,-9.105 -5.909,-19.348 -5.384,-30.729c0.526,-10.68 2.802,-20.704 6.829,-30.072c4.027,-9.367 9.498,-17.64 16.415,-24.819c6.916,-7.179 14.97,-12.781 24.162,-16.809c9.192,-4.027 19.041,-6.04 29.547,-6.04c12.081,-0 22.324,2.801 30.728,8.404c8.405,5.603 14.095,12.432 17.072,20.486l7.879,-25.739l15.233,0l-22.324,126.591c-1.751,10.156 -4.903,19.304 -9.455,27.446c-4.553,8.142 -10.156,15.145 -16.809,21.011c-6.654,5.865 -14.27,10.374 -22.849,13.526c-8.58,3.151 -17.86,4.727 -27.84,4.727Zm10.243,-74.326c10.505,-0 20.092,-2.758 28.759,-8.273c8.667,-5.516 15.714,-12.957 21.142,-22.324c5.428,-9.368 8.317,-19.742 8.667,-31.123c0.525,-9.104 -0.919,-16.94 -4.334,-23.506c-3.414,-6.566 -8.273,-11.687 -14.576,-15.364c-6.303,-3.677 -13.745,-5.515 -22.324,-5.515c-10.856,-0 -20.486,2.714 -28.89,8.141c-8.405,5.428 -15.058,12.695 -19.961,21.799c-4.902,9.105 -7.616,19.348 -8.141,30.729c-0.526,9.104 0.7,17.071 3.677,23.9c2.976,6.828 7.572,12.125 13.788,15.889c6.216,3.765 13.613,5.647 22.193,5.647Z" style="fill:#615fff;fill-rule:nonzero;"/><path d="M349.445,244.083l33.093,-189.098l18.384,-0l-14.182,80.367c5.778,-8.405 13.088,-14.971 21.93,-19.698c8.842,-4.727 18.078,-7.091 27.708,-7.091c10.155,-0 18.647,2.013 25.476,6.04c6.828,4.028 11.6,10.156 14.314,18.385c2.713,8.229 2.932,18.735 0.656,31.516l-14.182,79.579l-18.122,0l13.394,-77.477c2.452,-14.183 1.314,-24.732 -3.414,-31.648c-4.727,-6.916 -12.782,-10.374 -24.163,-10.374c-7.879,-0 -15.32,1.926 -22.324,5.778c-7.003,3.852 -12.956,9.411 -17.859,16.677c-4.902,7.266 -8.317,16.24 -10.243,26.92l-12.081,70.124l-18.385,0Z" style="fill:#615fff;fill-rule:nonzero;"/><path d="M520.947,244.083c-8.579,0 -15.452,-1.357 -20.617,-4.071c-5.165,-2.713 -8.579,-6.916 -10.243,-12.606c-1.663,-5.691 -1.707,-13.001 -0.131,-21.93l13.657,-78.003l-21.011,-0l2.889,-15.759l21.011,0l7.879,-30.728l16.021,-0l-5.515,30.728l39.658,0l-2.627,15.759l-39.658,-0l-13.919,78.003c-1.576,8.754 -0.92,14.751 1.969,17.99c2.889,3.24 8.536,4.859 16.94,4.859l16.547,0l-2.889,15.758l-19.961,0Z" style="fill:#615fff;fill-rule:nonzero;"/><path d="M592.384,247.235c-10.68,-0 -19.785,-1.838 -27.314,-5.515c-7.529,-3.677 -13.088,-8.93 -16.677,-15.759c-3.59,-6.828 -5.034,-15.057 -4.334,-24.687l18.91,-0c-0.175,5.427 0.7,10.374 2.626,14.839c1.926,4.464 5.341,8.054 10.243,10.768c4.903,2.714 11.381,4.071 19.435,4.071c6.654,-0 12.432,-1.007 17.334,-3.021c4.903,-2.013 8.799,-4.946 11.688,-8.798c2.889,-3.852 4.421,-8.317 4.596,-13.395c0.35,-4.727 -0.657,-8.492 -3.021,-11.293c-2.363,-2.801 -5.821,-5.034 -10.374,-6.697c-4.552,-1.664 -10.067,-3.108 -16.546,-4.334c-5.253,-0.875 -10.33,-2.188 -15.233,-3.939c-4.902,-1.751 -9.192,-3.984 -12.869,-6.698c-3.677,-2.713 -6.522,-6.084 -8.536,-10.111c-2.013,-4.027 -2.932,-8.755 -2.757,-14.182c0.35,-7.529 2.801,-14.27 7.354,-20.223c4.552,-5.954 10.68,-10.725 18.384,-14.314c7.704,-3.589 16.459,-5.384 26.264,-5.384c13.482,-0 24.206,3.37 32.173,10.111c7.966,6.741 11.512,16.59 10.637,29.547l-18.648,-0c0.526,-7.179 -1.488,-12.869 -6.04,-17.071c-4.553,-4.203 -11.294,-6.304 -20.223,-6.304c-8.93,0 -16.196,2.014 -21.799,6.041c-5.603,4.027 -8.492,9.017 -8.667,14.97c-0.175,3.852 0.788,7.135 2.889,9.849c2.101,2.714 5.296,4.946 9.586,6.697c4.29,1.751 9.674,3.327 16.152,4.728c5.603,1.05 10.943,2.451 16.021,4.202c5.078,1.751 9.499,3.983 13.263,6.697c3.765,2.714 6.697,6.128 8.799,10.243c2.101,4.115 2.976,9.149 2.626,15.102c-0.35,8.929 -3.02,16.677 -8.011,23.243c-4.99,6.566 -11.599,11.644 -19.829,15.233c-8.229,3.589 -17.596,5.384 -28.102,5.384Z" style="fill:#615fff;fill-rule:nonzero;"/><path d="M693.762,244.083c-8.579,0 -15.452,-1.357 -20.617,-4.071c-5.165,-2.713 -8.579,-6.916 -10.243,-12.606c-1.663,-5.691 -1.707,-13.001 -0.131,-21.93l13.657,-78.003l-21.011,-0l2.889,-15.759l21.011,0l7.879,-30.728l16.021,-0l-5.515,30.728l39.658,0l-2.627,15.759l-39.658,-0l-13.92,78.003c-1.575,8.754 -0.919,14.751 1.97,17.99c2.889,3.24 8.536,4.859 16.94,4.859l16.546,0l-2.889,15.758l-19.96,0Z" style="fill:#615fff;fill-rule:nonzero;"/><path d="M770.452,247.235c-11.556,-0 -21.361,-2.758 -29.415,-8.273c-8.055,-5.515 -14.051,-12.913 -17.991,-22.193c-3.94,-9.28 -5.647,-19.523 -5.121,-30.728c0.525,-11.381 2.757,-21.755 6.697,-31.123c3.939,-9.367 9.236,-17.553 15.889,-24.556c6.654,-7.004 14.402,-12.388 23.244,-16.152c8.842,-3.765 18.34,-5.647 28.496,-5.647c11.731,-0 21.361,2.451 28.89,7.354c7.529,4.902 12.957,11.643 16.283,20.223l5.516,-24.426l17.071,0l-23.375,132.369l-17.071,0l2.889,-23.9c-3.502,4.728 -7.66,9.149 -12.475,13.264c-4.815,4.114 -10.506,7.441 -17.072,9.98c-6.566,2.539 -14.051,3.808 -22.455,3.808Zm4.202,-16.021c10.33,0 19.523,-2.758 27.577,-8.273c8.054,-5.515 14.533,-13 19.435,-22.455c4.903,-9.455 7.529,-19.961 7.879,-31.517c0.525,-9.104 -0.613,-16.94 -3.414,-23.506c-2.802,-6.566 -7.091,-11.687 -12.869,-15.364c-5.778,-3.677 -12.869,-5.515 -21.274,-5.515c-9.98,-0 -19.041,2.582 -27.183,7.747c-8.141,5.166 -14.707,12.257 -19.698,21.274c-4.99,9.017 -7.747,19.479 -8.273,31.385c-0.525,8.93 0.701,16.896 3.677,23.9c2.977,7.004 7.398,12.475 13.264,16.415c5.865,3.939 12.825,5.909 20.879,5.909Z" style="fill:#615fff;fill-rule:nonzero;"/><path d="M905.972,247.235c-11.03,-0 -20.617,-2.495 -28.758,-7.485c-8.142,-4.99 -14.358,-11.95 -18.647,-20.88c-4.29,-8.929 -6.085,-19.26 -5.385,-30.991c0.351,-11.731 2.627,-22.412 6.829,-32.042c4.202,-9.63 9.805,-17.946 16.809,-24.95c7.003,-7.004 15.058,-12.475 24.162,-16.415c9.105,-3.939 18.735,-5.909 28.89,-5.909c15.759,-0 28.146,4.027 37.163,12.081c9.018,8.054 13.614,18.822 13.789,32.304l-18.385,0c-0.175,-9.279 -3.589,-16.327 -10.243,-21.142c-6.653,-4.815 -14.882,-7.222 -24.687,-7.222c-9.63,-0 -18.56,2.538 -26.789,7.616c-8.23,5.078 -14.883,12.257 -19.961,21.536c-5.077,9.28 -7.966,20.136 -8.667,32.567c-0.35,7.354 0.35,13.832 2.101,19.435c1.751,5.603 4.29,10.331 7.617,14.183c3.327,3.852 7.31,6.785 11.95,8.798c4.64,2.014 9.586,3.02 14.839,3.02c6.478,0 12.694,-1.094 18.647,-3.283c5.953,-2.188 11.25,-5.427 15.89,-9.717c4.639,-4.29 8.185,-9.586 10.636,-15.89l18.385,0c-3.152,8.58 -7.967,16.24 -14.445,22.981c-6.479,6.741 -14.139,11.994 -22.981,15.758c-8.842,3.765 -18.428,5.647 -28.759,5.647Z" style="fill:#615fff;fill-rule:nonzero;"/><path d="M1000.69,174.624l-12.252,69.459l-18.384,0l23.348,-132.369l18.385,0l-10.058,57.023l86.909,-74.619l24.425,-0l-92.411,77.867l55.244,72.098l-23.112,0l-52.094,-69.459Z" style="fill:#615fff;fill-rule:nonzero;"/><path d="M1085.94,244.083l-54.373,-72.498l104.298,-89.548l24.425,-0l-106.482,89.948l55.244,72.098l-23.112,0Z" style="fill:#7c86ff;fill-rule:nonzero;"/><path d="M1119.14,244.083l-54.373,-72.498l135.805,-116.6l24.425,-0l-137.989,117l55.244,72.098l-23.112,0Z" style="fill:#a3b3ff;fill-rule:nonzero;"/></g></svg>